Source: Various DSR Releases.

This has Episodes 01 - 08 of Seasons 01. As far as I know that is all that has been aired and all that is available.

Encoded for PSP, iPod, Zune.

Enjoy and please help me seed! (^_^)

              This show comes on MTV.
Show Nfo - - - A weekly 30 minute show of the very best pranks pulled straight off the internet. The show taps into the era of technology democratizing the media process. These homemade pranks are engineered, executed and filmed by kids themselves. No producers; no professional editors, no camera men -- just the thin line of technology between the pranksters, their victims and the audience. 

Video Specs: 
Format                           : MPEG-4
Codec ID                         : M4V 
File size                        : 115 MiB
Duration                         : 20mn 45s
Overall bit rate                 : 773 Kbps
Movie name                       : Pranked S01E01
Encoded date                     : 2010
Writing application              : Lavf52.33.0

Video
ID                               : 1
Format                           : AVC
Format/Info                      : Advanced Video Codec
Format profile                   : Baseline@L1.3
Format settings, CABAC           : No
Format settings, ReFrames        : 1 frame
Codec ID                         : avc1
Codec ID/Info                    : Advanced Video Coding
Duration                         : 20mn 45s
Bit rate mode                    : Variable
Bit rate                         : 640 Kbps
Width                            : 320 pixels
Height                           : 240 pixels
Display aspect ratio             : 4:3
Frame rate mode                  : Constant
Frame rate                       : 29.970 fps
Color space                      : YUV
Chroma subsampling               : 4:2:0
Bit depth                        : 8 bits
Scan type                        : Progressive
Bits/(Pixel*Frame)               : 0.278
Stream size                      : 95.0 MiB (83%)

Audio
ID                               : 2
Format                           : AAC
Format/Info                      : Advanced Audio Codec
Format version                   : Version 4
Format profile                   : LC
Format settings, SBR             : No
Codec ID                         : 40
Duration                         : 20mn 45s
Bit rate mode                    : Variable
Bit rate                         : 128 Kbps
Channel(s)                       : 2 channels
Channel positions                : Front: L R
Sampling rate                    : 48.0 KHz
Stream size                      : 19.0 MiB (17%)

